<?xml version="1.0" encoding="utf-8"?>
<!-- Generator: Adobe Illustrator 20.1.0, SVG Export Plug-In . SVG Version: 6.00 Build 0)  -->
<svg version="1.1" id="圖層_1" xmlns="http://www.w3.org/2000/svg" xmlns:xlink="http://www.w3.org/1999/xlink" x="0px" y="0px"
	 viewBox="0 0 663.8 121.5" style="enable-background:new 0 0 663.8 121.5;" xml:space="preserve">
<style type="text/css">
	.st0{fill:#FFFFFF;stroke:#000000;stroke-miterlimit:10;}
	.st1{fill:#1A98D0;}
	.st2{fill:#FFFFFF;}
	.st3{fill:#00A2E2;}
</style>
<g>
	<g>
		<g>
			<g>
				<path class="st2" d="M72.5,117c-3.7,1.1-8.3,2.2-13.9,3.1c-5.6,0.9-11.5,1.4-17.6,1.4c-6.4,0-12.1-1-17.1-2.9
					c-5-1.9-9.3-4.7-12.9-8.4c-3.5-3.6-6.3-8.1-8.2-13.2C0.9,91.7,0,85.9,0,79.4c0-6.4,0.8-12.1,2.4-17.3c1.6-5.2,3.9-9.6,7-13.3
					c3.1-3.7,6.8-6.5,11.2-8.5c4.4-2,9.5-3,15.2-3c3.9,0,7.3,0.5,10.3,1.4c3,0.9,5.5,2,7.7,3.1V3.1L72.5,0V117z M19.1,79
					c0,8.2,1.9,14.7,5.9,19.3c3.9,4.7,9.3,7,16.2,7c3,0,5.5-0.1,7.6-0.4c2.1-0.3,3.8-0.5,5.2-0.8V57.9c-1.6-1.1-3.8-2.2-6.5-3.2
					c-2.7-1-5.6-1.5-8.7-1.5c-6.8,0-11.7,2.3-14.9,6.9C20.7,64.8,19.1,71.1,19.1,79z"/>
			</g>
		</g>
		<g>
			<g>
				<path class="st2" d="M95.6,79.6c0-7.1,1.1-13.3,3.2-18.6c2.1-5.3,4.9-9.8,8.4-13.3c3.5-3.5,7.5-6.2,12-8
					c4.5-1.8,9.1-2.7,13.9-2.7c11.1,0,19.7,3.4,25.9,10.3c6.2,6.9,9.3,17.1,9.3,30.8c0,1,0,2.2-0.1,3.5c-0.1,1.3-0.1,2.4-0.2,3.5
					h-53.1c0.5,6.5,2.8,11.5,6.9,15c4.1,3.5,9.9,5.3,17.6,5.3c4.5,0,8.6-0.4,12.4-1.2c3.7-0.8,6.7-1.7,8.9-2.6l2.5,15.2
					c-1,0.5-2.4,1.1-4.2,1.6c-1.8,0.6-3.8,1.1-6.2,1.5c-2.3,0.5-4.8,0.8-7.5,1.2c-2.7,0.3-5.4,0.5-8.2,0.5c-7.1,0-13.2-1.1-18.5-3.2
					c-5.2-2.1-9.5-5-12.9-8.8c-3.4-3.7-5.9-8.2-7.5-13.2C96.4,91.2,95.6,85.7,95.6,79.6z M149.6,71.3c0-2.6-0.4-5-1.1-7.3
					c-0.7-2.3-1.8-4.3-3.2-6c-1.4-1.7-3.1-3-5.1-4c-2-1-4.4-1.5-7.2-1.5c-2.9,0-5.4,0.5-7.5,1.6c-2.2,1.1-4,2.5-5.5,4.2
					c-1.5,1.7-2.6,3.7-3.5,6c-0.8,2.3-1.4,4.6-1.7,6.9H149.6z"/>
			</g>
		</g>
		<g>
			<g>
				<path class="st2" d="M191.8,41.6c3.6-1,8.3-2,14-2.9c5.7-0.9,12.1-1.4,19.1-1.4c6.6,0,12.1,0.9,16.5,2.7
					c4.4,1.8,7.9,4.3,10.5,7.5c2.6,3.2,4.5,7.1,5.5,11.7c1.1,4.6,1.6,9.6,1.6,15v45.3h-18.6V77.1c0-4.3-0.3-8-0.8-11
					c-0.6-3-1.5-5.5-2.8-7.4c-1.3-1.9-3-3.3-5.2-4.2c-2.2-0.9-4.9-1.3-8.1-1.3c-2.4,0-4.8,0.2-7.4,0.5c-2.6,0.3-4.5,0.6-5.7,0.8v65
					h-18.6V41.6z"/>
			</g>
		</g>
		<g>
			<g>
				<path class="st2" d="M284.8,17.7l18.6-3.1V39h28.6v15.5h-28.6v32.8c0,6.5,1,11.1,3.1,13.9c2.1,2.8,5.5,4.2,10.5,4.2
					c3.4,0,6.4-0.4,9-1.1c2.6-0.7,4.7-1.4,6.2-2l3.1,14.8c-2.2,0.9-5,1.9-8.5,2.8c-3.5,1-7.6,1.5-12.3,1.5c-5.7,0-10.5-0.8-14.4-2.3
					c-3.8-1.5-6.9-3.8-9.2-6.7c-2.3-2.9-3.8-6.5-4.8-10.6c-0.9-4.2-1.4-8.9-1.4-14.2V17.7z"/>
			</g>
		</g>
		<g>
			<g>
				<path class="st2" d="M380.7,36.9c6.2,0,11.3,0.8,15.5,2.3c4.2,1.5,7.6,3.7,10.1,6.5c2.5,2.8,4.3,6.1,5.4,10.1
					c1.1,4,1.6,8.3,1.6,13v48.8c-2.9,0.6-7.2,1.4-13,2.2c-5.8,0.9-12.3,1.3-19.6,1.3c-4.8,0-9.2-0.5-13.2-1.4
					c-4-0.9-7.4-2.4-10.2-4.5c-2.8-2.1-5-4.7-6.6-8c-1.6-3.3-2.4-7.3-2.4-12.2c0-4.6,0.9-8.5,2.7-11.7c1.8-3.2,4.2-5.8,7.3-7.8
					c3.1-2,6.6-3.4,10.7-4.3c4.1-0.9,8.3-1.3,12.7-1.3c2.1,0,4.2,0.1,6.5,0.4c2.3,0.3,4.7,0.7,7.2,1.3v-3.1c0-2.2-0.3-4.2-0.8-6.2
					c-0.5-1.9-1.4-3.7-2.7-5.2c-1.3-1.5-3-2.6-5.1-3.5c-2.1-0.8-4.7-1.2-7.9-1.2c-4.3,0-8.3,0.3-11.9,0.9c-3.6,0.6-6.5,1.3-8.8,2.2
					l-2.3-15.1c2.4-0.8,5.8-1.6,10.3-2.5C370.8,37.4,375.6,36.9,380.7,36.9z M382.3,106.4c5.7,0,10.1-0.3,13.1-0.9V84.8
					c-1-0.3-2.5-0.6-4.5-0.9c-2-0.3-4.1-0.5-6.5-0.5c-2.1,0-4.1,0.2-6.2,0.5c-2.1,0.3-4,0.9-5.7,1.7c-1.7,0.8-3.1,2-4.1,3.5
					c-1,1.5-1.5,3.4-1.5,5.6c0,4.4,1.4,7.5,4.2,9.2C373.8,105.5,377.5,106.4,382.3,106.4z"/>
			</g>
		</g>
		<g>
			<g>
				<path class="st2" d="M468,121c-5.5-0.1-10.1-0.7-13.8-1.8c-3.6-1.1-6.5-2.7-8.7-4.8c-2.2-2.1-3.7-4.7-4.5-7.9
					c-0.9-3.1-1.3-6.7-1.3-10.7V3.1L458.3,0v92.2c0,2.3,0.2,4.2,0.5,5.7c0.4,1.5,1,2.8,1.9,3.9c0.9,1.1,2.2,1.9,3.8,2.5
					c1.6,0.6,3.6,1,6.1,1.3L468,121z"/>
			</g>
		</g>
		<path class="st2" d="M488.6,17.7l18.6-3.1V39h28.6v15.5h-28.6v32.8c0,6.5,1,11.1,3.1,13.9c2.1,2.8,5.5,4.2,10.5,4.2
			c3.4,0,6.4-0.4,9-1.1c2.6-0.7,4.7-1.4,6.2-2l3.1,14.8c-2.2,0.9-5,1.9-8.5,2.8c-3.5,1-7.6,1.5-12.3,1.5c-5.7,0-10.5-0.8-14.4-2.3
			c-3.8-1.5-6.9-3.8-9.2-6.7c-2.3-2.9-3.8-6.5-4.8-10.6c-0.9-4.2-1.4-8.9-1.4-14.2V17.7z"/>
		<path class="st2" d="M605.9,68.8c-2.4,9-4.9,17.8-7.6,26.4c-2.7,8.6-5.4,16.7-8.1,24.2h-15.3c-2.1-4.7-4.2-10.1-6.5-16.2
			c-2.3-6.1-4.5-12.5-6.8-19.4c-2.3-6.9-4.5-14.1-6.8-21.7c-2.3-7.6-4.5-15.3-6.6-23.2h19.7c0.9,4.3,2,9,3.2,13.9
			c1.2,5,2.5,10.1,3.9,15.2c1.3,5.2,2.7,10.2,4.2,15.2c1.4,4.9,2.9,9.4,4.3,13.5c1.5-4.7,3.1-9.6,4.6-14.6c1.5-5,2.9-10.1,4.2-15.1
			c1.3-5,2.6-9.9,3.8-14.7c1.2-4.8,2.2-9.3,3.2-13.5h14.3c0.9,4.2,1.9,8.7,3.1,13.5c1.1,4.8,2.3,9.7,3.6,14.7
			c1.3,5,2.7,10.1,4.1,15.1c1.5,5,3,9.9,4.5,14.6c1.3-4.1,2.7-8.6,4.2-13.5c1.4-4.9,2.9-10,4.3-15.2c1.4-5.2,2.7-10.3,3.9-15.2
			c1.2-5,2.3-9.6,3.3-13.9h19.2c-2.2,7.9-4.4,15.7-6.6,23.2c-2.3,7.6-4.5,14.8-6.8,21.7c-2.3,6.9-4.5,13.3-6.8,19.4
			c-2.3,6.1-4.5,11.4-6.6,16.2h-15.1c-2.7-7.6-5.4-15.7-8.2-24.2C610.8,86.7,608.2,77.8,605.9,68.8z"/>
	</g>
</g>
</svg>
