<?xml version="1.0" encoding="utf-8"?>
<!-- Generator: Adobe Illustrator 20.1.0, SVG Export Plug-In . SVG Version: 6.00 Build 0)  -->
<svg version="1.1" id="圖層_1" xmlns="http://www.w3.org/2000/svg" xmlns:xlink="http://www.w3.org/1999/xlink" x="0px" y="0px"
	 viewBox="0 0 1465.4 123" style="enable-background:new 0 0 1465.4 123;" xml:space="preserve">
<style type="text/css">
	.st0{fill:#FFFFFF;stroke:#000000;stroke-miterlimit:10;}
	.st1{fill:#1A98D0;}
	.st2{fill:#FFFFFF;}
	.st3{fill:#00A2E2;}
	.st4{fill:none;stroke:#7C7B7C;stroke-width:2;stroke-miterlimit:10;}
</style>
<path class="st3" d="M99.2,65.6H14.3c-3.9,0-4.9,1.4-7.2,3.6c-2.2,2.2-3.5,5.3-3.5,8.8v31.9c0,3.6,1.4,7,3.9,9.4
	c2.2,2.1,5.2,3.4,8.7,3.4h83.4c3.1,0,6.3-1.3,8.5-3.8c2.1-2.2,3.4-5.3,3.4-9.2v-31c0-3.6-1.1-6.7-3.1-8.9
	C106.2,67.1,102.8,65.6,99.2,65.6z M98.6,108.9c0,1.8-2,3.5-3.4,3.5H20c-2,0-3.2-1.7-3.2-3.5V79.7c0-2.2,2.2-3.9,4.1-3.9h73.8
	c2.1,0,4.1,1.7,4.1,4.1V108.9z M75.5,51.9L75.5,51.9h30c2.7,0,4.5-1.4,5.3-3.2c1-2.1,0.7-4.8-1.1-6.9L91.7,13.4H77.3l15.6,28.4H18.8
	l34.5-41H36.5L2,41.8c-1.8,2.1-2.1,4.8-1.1,6.9c0.8,1.8,2.7,3.2,5.3,3.2H75.5z M172.6,41.7h-7c-0.4,6.4-1.8,15.4-3.4,20.3h7.8
	C171.5,56.6,172.3,48,172.6,41.7z M175.2,41.7c0,5.2,1,15.4,1.7,20.3h6.6c-1-5.2-2-15.1-1.8-20.3H175.2z M136.2,0.6
	c2.7,8.4,8.8,22.8,12.2,29.4H162c-4.6-7.7-10.9-21.8-12.9-29.4H136.2z M136,122.9h13.6c4.1-13.4,9.2-37.3,11-50.2h-12
	C147.1,86.8,140.9,110,136,122.9z M136.4,34.8c2.1,8.4,7.8,23.5,11.6,30.7h14c-4.5-7.7-10.9-22.5-12.9-30.7H136.4z M246,97.2h-62.3
	c-1.3,0-2.4-1.1-2.4-2.4v-2.4c0-1.3,1.1-2.4,2.2-2.4H244c2.8,0,5.2-0.8,6.9-2.2c1.7-1.5,2.7-3.6,2.7-6.3v-6.3c0-2.5-0.8-4.3-2.1-5.7
	c-1.7-1.5-4.3-2.4-7.4-2.4h-76.7v8.1h71.1c1.3,0,2.4,1.1,2.4,2.4v1.5c0,1.1-1.3,2.7-2.5,2.7h-58.7c-3.1,0-5.5,0.7-7.3,2
	c-2.2,1.7-3.5,4.2-3.5,7.8v4.8c0,2.8,0.8,4.9,2.4,6.4c1.7,1.7,4.1,2.5,7,2.5h62.1c1.3,0,2.4,1.7,2.4,2.9v3.1c0,1.3-1.3,2.8-2.4,2.8
	h-56.6l-4.3,8.8h65.9c2.9,0,5.9-1.4,7.7-3.5c1.3-1.5,2.1-3.5,2.1-5.6v-7.7c0-2.5-1-4.9-2.8-6.7C250.6,98.1,248.6,97.2,246,97.2z
	 M245.3,41.4H239c-0.1,5.7,0.6,15.8,1.4,20.4h7C246.5,57.2,245.4,46.9,245.3,41.4z M248.8,41.4c0.4,5.3,1.5,15.5,2.5,20.4h6.8
	c-1-5-2.2-15.2-2.7-20.4H248.8z M259.2,8h-10.6c-1.1,1.5-3.5,4.2-5,5.7h-5.7c3.1-3.4,8.7-10.1,11.2-13.4h-10.6
	c-2.4,2.9-7.1,8.5-9.9,11.5V8h-12.2c-0.7-2-1.7-5.6-1.8-7.4h-11.3c0.4,2,1.3,5.5,2,7.4h-10.9v2.2h-8.9c-0.7,0.8-2.7,2.8-3.6,3.8h-6
	c3.2-3.2,9.5-9.8,12.7-13.3h-11.9c-2.8,3.1-8.7,9.2-11.5,12c-1.4,1.3-1.4,3.6-0.7,5.2c0.7,1.4,2.2,2.5,4.2,2.5h6.7
	c-2.8,3.1-7.5,8.1-10.9,11.3c-1.3,1.3-1.4,2.9-0.7,4.3c0.6,1.4,2,2.5,3.6,2.5h28.4c-1.5-3.6-3.2-10.1-3.6-13.8h-7.7
	c0.1,2,0.8,5,1.3,6.8h-9.8c4.8-4.6,14.3-14.4,18.4-18.7v3.2h33.3c0.4,1.3,1,2.4,2.1,3.1c0.8,0.6,2,0.8,3.4,0.8h4.6
	c-1.5,2.1-5.9,6.7-8.7,9.6c-1.8,1.8-2.4,4.1-1.8,5.7c0.6,1.7,2.2,2.9,4.9,2.9h26.7c-1.7-3.6-3.6-10.6-4.2-14.3h-7.7
	c0.3,1.5,1.1,5,1.7,7h-9.9C245.3,23.9,254.1,14,259.2,8z M191,41.7h-6.3c0.1,5,1.1,14.7,2.2,20.3h6.7
	C192.6,56.9,191.2,47.4,191,41.7z M229.3,41.4c-0.3,5.6-1.5,14.4-3.5,20.4h7.5c1.5-5.4,2.9-15,2.9-20.4H229.3z M196.6,20v7h28.2v-7
	H196.6z M196.6,37.8H225v-7.1h-28.4V37.8z M195.1,55.1c0,2.2,0.7,3.9,2,5.2c1.1,1.3,2.9,1.8,5.2,1.8h16.2c2.1,0,3.8-0.7,5-2
	c1.1-1.3,1.8-2.9,1.8-4.9v-6.4c0-2.1-0.6-3.6-1.5-4.9c-1.3-1.5-3.2-2.4-5.5-2.4h-15.7c-2.1,0-3.8,0.4-5,1.4
	c-1.7,1.4-2.5,3.5-2.5,6.2V55.1z M204.6,50.6c0-1.1,1.1-2.1,2.1-2.1h7.1c1,0,1.8,1.1,1.8,2.1V53c0,1-0.7,2-1.7,2h-7.3
	c-1.1,0-2.1-1-2.1-2.1V50.6z M324.8,64.5c-11,17.2-30.9,37-49.1,53h18.4c16.1-14.8,35.1-35.8,45.1-53H324.8z M366.3,12.2h22.1V2.5
	H285.8v9.6h67.4v34.7h-50.6c-1.8,0-3.8-1.4-3.8-3.6l10.5-25h-12.9c0,0-9.7,22.8-10,23.7c-0.3,0.9-0.5,2.5-0.4,3.3
	c0.3,3.1,1.1,5.4,2.4,7.2c2.2,2.9,5.6,4.5,9.8,4.5h54.9v50.7c0,2.5-1.8,4.1-4.2,4.1h-15.8l4.8,11.3h15.7c3.4,0,7.3-1.4,9.9-4.3
	c1.7-2,2.8-4.3,2.8-7.4V56.9h29V46.9h-29V12.2z M598.4,111.2c-17.4,0-30.2-3-35.9-6.8c3.1-6.4,8.5-17.2,10.1-25.5
	c0.7-3.7,0.7-9.8-0.8-12c-1.4-1.7-3.6-2.7-6.8-2.7l-23.6-0.5c0,0-0.2,12.2-0.2,12.3c0,0.2,19-0.1,19-0.1c0.7,0,1.3,1,1,1.7
	c-4.2,13.8-13.1,30.9-22.8,44.8h14.4c2.4-3.4,3.3-5.2,5.7-9.7c4.1,4.3,19,9.7,32.2,9.7c13.2,0,66.4,0,66.4,0l5.3-11.3
	C662.3,111.2,615.9,111.2,598.4,111.2z M589.8,78.4h20.8v24.9h12.2V78.4h21.4v15.1c0,1.7-1.3,2.8-3.2,2.8h-10.8l3.6,8.9h10.5
	c3.5,0,6.7-1.1,8.9-3.4c1.8-1.8,2.9-4.2,2.9-7.1V41.4c0-3.5-1.1-6.3-2.9-8.2c-2.2-2.4-5.4-3.5-8.9-3.5h-20.4
	c-0.4-0.4-1.1-1.1-1.5-1.7c8.7-3.6,17.3-7.4,24.7-13.8c2.4-2.1,2.5-5.3,1.1-7.8c-1.1-2.2-3.5-3.9-6.6-3.9h-62.5v9.4h52
	c-3.8,2.7-12.4,6.8-17.5,8.1c-0.8-1-2.1-2.4-2.7-3.4h-16.2c2.9,3.8,7.7,8.9,11.7,13.1h-16.1c-3.8,0-6.8,0.7-9.1,2.4
	c-2.2,1.7-3.5,4.5-3.5,8.7v64.6h11.9V78.4z M622.8,38.3h17.8c1.8,0,3.6,1.4,3.6,3.2v7.7h-21.4V38.3z M622.8,58.5h21.4v11h-21.4V58.5
	z M589.8,41.7c0-1.8,1.3-3.4,2.9-3.4h17.9v10.9h-20.8V41.7z M589.8,58.5h20.8v11h-20.8V58.5z M552.3,51.8h16.6
	c-6.4-8.1-10.9-16.4-14.8-25.4h16.4C564,18.3,559.5,10,555.6,1h-14.2c3.5,8.9,7.4,17.4,12.5,25.4h-14
	C543.3,35.3,547.2,43.8,552.3,51.8z M522.1,31.4l-0.1-1c-0.1-0.8-0.2-1.4-0.4-2.1c-0.3-1.4-0.6-2.8-1.1-4.1
	c-1.7-5.4-4.8-10.6-9.1-14.6c-4.2-4-9.6-6.8-15.3-8.1c-5.6-1.3-11.5-1.1-16.9,0.3c-4.5,1.1-8.6,3-12.3,5.4c-3.5-2.2-7.4-4-11.5-5.1
	c-5.1-1.4-10.6-1.8-16-0.9c-5.4,0.9-10.7,3.2-15,6.7c-4.4,3.5-7.8,8.1-9.9,13.2c-1.1,2.5-1.8,5.1-2.4,7.8c-0.5,2.6-0.7,5.2-0.8,7.9
	c-0.1,5.3,0.8,10.7,2.7,15.7c1.9,5,4.7,9.5,8,13.4c0.8,1,1.6,1.9,2.4,2.8l1.1,1.3c0.3,0.4,0.7,0.8,0.9,1c0.1,0.3,0.2,0.6,0.2,1
	c0.2,1,0.4,2.1,0.6,3.2l0,0c0.2,1.2,0.4,2.5,0.6,4c3.9,24.4,8.2,44.5,20.4,44.5c10,0,12.5-10.1,14.4-17.4c1-4,2.3-9.4,4.1-9.4
	c1.8,0,3.1,5.4,4.1,9.4c1.8,7.4,4.3,17.4,14.4,17.4c6.6,0,11.9-6.4,16.1-19.6c2.6-8.1,4.4-17.7,5-26c-3,1.3-7.5,2.8-11.2,3.8
	c-0.7,5.6-1.9,11.6-3.4,17c-2.8,9.5-5.6,13.2-6.7,14c-1.5-0.6-2.7-5.7-3.6-9.2c-1.7-7-4.4-17.6-14.6-17.6
	c-10.2,0-12.8,10.6-14.6,17.6c-0.8,3.3-2.2,8.7-3.7,9.2c-0.6-0.5-2.9-2.9-5.5-12.6c-2-7.5-3.4-16.4-4.5-22.8c-0.2-1.5-0.5-2.8-0.7-4
	v0c-0.2-1.2-0.4-2.3-0.6-3.6c-0.1-0.6-0.3-1.3-0.5-2.1c-0.1-0.2-0.1-0.5-0.2-0.8c-0.1-0.1-0.1-0.3-0.2-0.5c-0.1-0.2-0.2-0.4-0.4-0.8
	l-0.1-0.2l-0.3-0.4c-0.1-0.2-0.3-0.4-0.4-0.6c-0.5-0.7-0.9-1.1-1.3-1.6l-1.1-1.3c-0.7-0.8-1.4-1.7-2.1-2.5
	c-2.6-3.3-4.7-6.7-6.1-10.4c-1.4-3.7-2.1-7.6-2-11.6c0-2,0.2-4,0.6-6c0.3-1.9,0.9-3.8,1.6-5.5c1.4-3.5,3.7-6.6,6.5-8.9
	c2.8-2.3,6.3-3.9,10-4.6c3.7-0.7,7.7-0.6,11.6,0.2c3.9,0.8,7.9,2.2,11.7,4.1l2.7,1.4l1.8-1.4v0c4.1-1.9,8.2-3.5,12.3-4.2
	c4.1-0.8,8.3-0.8,12.1,0.1c3.9,0.9,7.4,2.8,10.2,5.5c2.8,2.7,4.9,6.2,6.1,10c0.3,1,0.6,2,0.7,3c0.1,0.5,0.2,1,0.3,1.5l0.1,0.9
	l0.1,0.8c0.2,2.1,0.2,4.2,0,6.2c-0.4,4.1-1.6,8.1-3.6,11.6c-2,3.5-4.8,6.6-8.1,9c-1.7,1.2-3.4,2.2-5.3,3.1c-1.9,0.9-4,1.6-6.1,2.2
	c-4.2,1.2-8.6,1.8-12.7,1.7c-4.2-0.1-8.2-1-11.4-2.8c-1.6-0.9-3.1-2.1-4.3-3.4c-0.2-0.2-0.3-0.4-0.5-0.5c4.6-1.7,9.1-3.4,13.6-5.2
	c3.3-1.3,6.6-2.7,9.9-4c3.3-1.4,6.6-2.7,9.9-4.2l3.6-1.5l-0.3-3.8l0,0c-0.2-3.3-1.3-6.6-3.1-9.4c-1.8-2.8-4.1-5.1-6.7-6.8
	c-5.2-3.4-11.4-4.8-17.4-4.3c-0.8,0.1-1.5,0.2-2.3,0.3c-0.4,0.1-0.7,0.1-1.2,0.2l-0.5,0.1l-0.5,0.1c-1.5,0.4-2.9,0.8-4.3,1.4
	c-2.7,1.1-5.3,2.7-7.6,4.6c-2.3,1.9-4.4,4.3-6,7c-1.6,2.7-2.7,5.8-3.1,8.9c-0.4,3.1-0.2,6.3,0.4,9.2c0.6,2.9,1.7,5.7,2.9,8.1
	c1.3,2.7,2.9,5.2,5,7.4c2,2.2,4.5,4.2,7.1,5.6c5.3,3,11.1,4.2,16.6,4.3c5.6,0.1,11-0.7,16.1-2.1c2.6-0.7,5.1-1.7,7.6-2.8
	c2.5-1.1,5-2.6,7.3-4.3c4.6-3.3,8.4-7.7,11.2-12.6c2.8-5,4.5-10.5,4.9-16.1c0.2-2.8,0.2-5.6-0.1-8.4L522.1,31.4z M426.5,70.7
	L426.5,70.7C426.5,70.6,426.5,70.6,426.5,70.7z M454.5,50.8c-0.4-1.8-0.5-3.6-0.3-5.3c0.4-3.4,2.2-6.4,5.1-8.8
	c2.8-2.4,6.6-4,10.2-4.3c3.7-0.3,7.5,0.6,10.5,2.5c1.5,0.9,2.7,2.1,3.6,3.5c0.2,0.3,0.3,0.5,0.5,0.8c-1.8,0.8-3.6,1.5-5.4,2.3
	c-3.3,1.3-6.5,2.7-9.8,4C464,47.3,459.3,49.1,454.5,50.8z"/>
<g>
	<g>
		<g>
			<g>
				<path d="M873.3,118.3c-3.7,1.1-8.3,2.2-13.9,3.1c-5.6,0.9-11.5,1.4-17.6,1.4c-6.4,0-12.1-1-17.1-2.9c-5-1.9-9.3-4.7-12.9-8.4
					c-3.5-3.6-6.3-8.1-8.2-13.2c-1.9-5.2-2.8-11-2.8-17.5c0-6.4,0.8-12.1,2.4-17.3c1.6-5.2,3.9-9.6,7-13.3c3.1-3.7,6.8-6.5,11.2-8.5
					c4.4-2,9.5-3,15.2-3c3.9,0,7.3,0.5,10.3,1.4c3,0.9,5.5,2,7.7,3.1V4.3l18.6-3.1V118.3z M819.9,80.2c0,8.2,1.9,14.7,5.9,19.3
					c3.9,4.7,9.3,7,16.2,7c3,0,5.5-0.1,7.6-0.4c2.1-0.3,3.8-0.5,5.2-0.8V59.1c-1.6-1.1-3.8-2.2-6.5-3.2c-2.7-1-5.6-1.5-8.7-1.5
					c-6.8,0-11.7,2.3-14.9,6.9C821.4,66.1,819.9,72.3,819.9,80.2z"/>
			</g>
		</g>
		<g>
			<g>
				<path d="M896.4,80.9c0-7.1,1.1-13.3,3.2-18.6c2.1-5.3,4.9-9.8,8.4-13.3c3.5-3.5,7.5-6.2,12-8c4.5-1.8,9.1-2.7,13.9-2.7
					c11.1,0,19.7,3.4,25.9,10.3c6.2,6.9,9.3,17.1,9.3,30.8c0,1,0,2.2-0.1,3.5c-0.1,1.3-0.1,2.4-0.2,3.5h-53.1
					c0.5,6.5,2.8,11.5,6.9,15c4.1,3.5,9.9,5.3,17.6,5.3c4.5,0,8.6-0.4,12.4-1.2c3.7-0.8,6.7-1.7,8.9-2.6l2.5,15.2
					c-1,0.5-2.4,1.1-4.2,1.6c-1.8,0.6-3.8,1.1-6.2,1.5c-2.3,0.5-4.8,0.8-7.5,1.2c-2.7,0.3-5.4,0.5-8.2,0.5c-7.1,0-13.2-1.1-18.5-3.2
					c-5.2-2.1-9.5-5-12.9-8.8c-3.4-3.7-5.9-8.2-7.5-13.2C897.2,92.5,896.4,86.9,896.4,80.9z M950.4,72.5c0-2.6-0.4-5-1.1-7.3
					c-0.7-2.3-1.8-4.3-3.2-6c-1.4-1.7-3.1-3-5.1-4c-2-1-4.4-1.5-7.2-1.5c-2.9,0-5.4,0.5-7.5,1.6c-2.2,1.1-4,2.5-5.5,4.2
					c-1.5,1.7-2.6,3.7-3.5,6c-0.8,2.3-1.4,4.6-1.7,6.9H950.4z"/>
			</g>
		</g>
		<g>
			<g>
				<path d="M992.6,42.8c3.6-1,8.3-2,14-2.9c5.7-0.9,12.1-1.4,19.1-1.4c6.6,0,12.1,0.9,16.5,2.7c4.4,1.8,7.9,4.3,10.5,7.5
					c2.6,3.2,4.5,7.1,5.5,11.7c1.1,4.6,1.6,9.6,1.6,15v45.3h-18.6V78.4c0-4.3-0.3-8-0.8-11c-0.6-3-1.5-5.5-2.8-7.4
					c-1.3-1.9-3-3.3-5.2-4.2c-2.2-0.9-4.9-1.3-8.1-1.3c-2.4,0-4.8,0.2-7.4,0.5c-2.6,0.3-4.5,0.6-5.7,0.8v65h-18.6V42.8z"/>
			</g>
		</g>
		<g>
			<g>
				<path d="M1085.6,19l18.6-3.1v24.3h28.6v15.5h-28.6v32.8c0,6.5,1,11.1,3.1,13.9c2.1,2.8,5.5,4.2,10.5,4.2c3.4,0,6.4-0.4,9-1.1
					c2.6-0.7,4.7-1.4,6.2-2l3.1,14.8c-2.2,0.9-5,1.9-8.5,2.8c-3.5,1-7.6,1.5-12.3,1.5c-5.7,0-10.5-0.8-14.4-2.3
					c-3.8-1.5-6.9-3.8-9.2-6.7c-2.3-2.9-3.8-6.5-4.8-10.6c-0.9-4.2-1.4-8.9-1.4-14.2V19z"/>
			</g>
		</g>
		<g>
			<g>
				<path d="M1181.5,38.2c6.2,0,11.3,0.8,15.5,2.3c4.2,1.5,7.6,3.7,10.1,6.5c2.5,2.8,4.3,6.1,5.4,10.1c1.1,4,1.6,8.3,1.6,13v48.8
					c-2.9,0.6-7.2,1.4-13,2.2c-5.8,0.9-12.3,1.3-19.6,1.3c-4.8,0-9.2-0.5-13.2-1.4c-4-0.9-7.4-2.4-10.2-4.5c-2.8-2.1-5-4.7-6.6-8
					c-1.6-3.3-2.4-7.3-2.4-12.2c0-4.6,0.9-8.5,2.7-11.7c1.8-3.2,4.2-5.8,7.3-7.8c3.1-2,6.6-3.4,10.7-4.3c4.1-0.9,8.3-1.3,12.7-1.3
					c2.1,0,4.2,0.1,6.5,0.4c2.3,0.3,4.7,0.7,7.2,1.3v-3.1c0-2.2-0.3-4.2-0.8-6.2c-0.5-1.9-1.4-3.7-2.7-5.2c-1.3-1.5-3-2.6-5.1-3.5
					c-2.1-0.8-4.7-1.2-7.9-1.2c-4.3,0-8.3,0.3-11.9,0.9c-3.6,0.6-6.5,1.3-8.8,2.2l-2.3-15.1c2.4-0.8,5.8-1.6,10.3-2.5
					C1171.6,38.6,1176.4,38.2,1181.5,38.2z M1183.1,107.6c5.7,0,10.1-0.3,13.1-0.9V86.1c-1-0.3-2.5-0.6-4.5-0.9
					c-2-0.3-4.1-0.5-6.5-0.5c-2.1,0-4.1,0.2-6.2,0.5c-2.1,0.3-4,0.9-5.7,1.7c-1.7,0.8-3.1,2-4.1,3.5c-1,1.5-1.5,3.4-1.5,5.6
					c0,4.4,1.4,7.5,4.2,9.2C1174.6,106.8,1178.3,107.6,1183.1,107.6z"/>
			</g>
		</g>
		<g>
			<g>
				<path d="M1268.8,122.3c-5.5-0.1-10.1-0.7-13.8-1.8c-3.6-1.1-6.5-2.7-8.7-4.8c-2.2-2.1-3.7-4.7-4.5-7.9
					c-0.9-3.1-1.3-6.7-1.3-10.7V4.3l18.6-3.1v92.2c0,2.3,0.2,4.2,0.5,5.7c0.4,1.5,1,2.8,1.9,3.9c0.9,1.1,2.2,1.9,3.8,2.5
					c1.6,0.6,3.6,1,6.1,1.3L1268.8,122.3z"/>
			</g>
		</g>
		<path class="st3" d="M1289.4,19l18.6-3.1v24.3h28.6v15.5h-28.6v32.8c0,6.5,1,11.1,3.1,13.9c2.1,2.8,5.5,4.2,10.5,4.2
			c3.4,0,6.4-0.4,9-1.1c2.6-0.7,4.7-1.4,6.2-2l3.1,14.8c-2.2,0.9-5,1.9-8.5,2.8c-3.5,1-7.6,1.5-12.3,1.5c-5.7,0-10.5-0.8-14.4-2.3
			c-3.8-1.5-6.9-3.8-9.2-6.7c-2.3-2.9-3.8-6.5-4.8-10.6c-0.9-4.2-1.4-8.9-1.4-14.2V19z"/>
		<path class="st3" d="M1406.7,70.1c-2.4,9-4.9,17.8-7.6,26.4c-2.7,8.6-5.4,16.7-8.1,24.2h-15.3c-2.1-4.7-4.2-10.1-6.5-16.2
			c-2.3-6.1-4.5-12.5-6.8-19.4c-2.3-6.9-4.5-14.1-6.8-21.7c-2.3-7.6-4.5-15.3-6.6-23.2h19.7c0.9,4.3,2,9,3.2,13.9
			c1.2,5,2.5,10.1,3.9,15.2c1.3,5.2,2.7,10.2,4.2,15.2c1.4,4.9,2.9,9.4,4.3,13.5c1.5-4.7,3.1-9.6,4.6-14.6c1.5-5,2.9-10.1,4.2-15.1
			c1.3-5,2.6-9.9,3.8-14.7c1.2-4.8,2.2-9.3,3.2-13.5h14.3c0.9,4.2,1.9,8.7,3.1,13.5c1.1,4.8,2.3,9.7,3.6,14.7
			c1.3,5,2.7,10.1,4.1,15.1c1.5,5,3,9.9,4.5,14.6c1.3-4.1,2.7-8.6,4.2-13.5c1.4-4.9,2.9-10,4.3-15.2c1.4-5.2,2.7-10.3,3.9-15.2
			c1.2-5,2.3-9.6,3.3-13.9h19.2c-2.2,7.9-4.4,15.7-6.6,23.2c-2.3,7.6-4.5,14.8-6.8,21.7c-2.3,6.9-4.5,13.3-6.8,19.4
			c-2.3,6.1-4.5,11.4-6.6,16.2h-15.1c-2.7-7.6-5.4-15.7-8.2-24.2C1411.6,87.9,1409,79.1,1406.7,70.1z"/>
	</g>
</g>
<line class="st4" x1="732.9" y1="12.4" x2="732.9" y2="111.6"/>
</svg>
